# xmcd CD database file
#
# Track frame offsets:
#	150
#	18393
#	38934
#	56924
#	77326
#	96299
#	113063
#	133206
#	148877
#	170776
#	188548
#	217985
#
# Disc length: 3334 seconds
#
# Revision: 1
# Processed by: cddbd v1.5.1PL0 Copyright (c) Steve Scherf et al.
# Submitted via: CDex 1.51
#
DISCID=aa0d040c
DTITLE=Damian - Oneness
DYEAR=2004
DGENRE=New Age
TTITLE0=Oneness
TTITLE1=Open Your Heart
TTITLE2=Habanos Days
TTITLE3=Queen of Night
TTITLE4=Anaconda
TTITLE5=Crossroads Brothers
TTITLE6=Planet Music
TTITLE7=Bale
TTITLE8=Moonlight In St. Petersburg
TTITLE9=Dancing Swans
TTITLE10=Oneness (Jorio Remix)
TTITLE11=Broken Wings
EXTD=YEAR: 2004
EXTT0=
EXTT1=
EXTT2=
EXTT3=
EXTT4=
EXTT5=
EXTT6=
EXTT7=
EXTT8=
EXTT9=
EXTT10=
EXTT11=
PLAYORDER=
